/* XPM */
static char * lever_down_xpm[] = {
"64 64 48 1",
" 	c None",
".	c #545454",
"+	c #484848",
"@	c #383838",
"#	c #8C8C8C",
"$	c #989898",
"%	c #7C7C7C",
"&	c #707070",
"*	c #2C2C2C",
"=	c #A8A8A8",
"-	c #008484",
";	c #00E4E4",
">	c #646464",
",	c #005858",
"'	c #004040",
")	c #4C4C4C",
"!	c #5C5C5C",
"~	c #B4B4B4",
"{	c #C0C0C0",
"]	c #404040",
"^	c #DCDCDC",
"/	c #FCFCFC",
"(	c #FC0000",
"_	c #007070",
":	c #D40000",
"<	c #A80000",
"[	c #4C0000",
"}	c #640000",
"|	c #7C0000",
"1	c #000000",
"2	c #303030",
"3	c #00CCCC",
"4	c #9C9C00",
"5	c #848400",
"6	c #706C00",
"7	c #00B4B4",
"8	c #D0D0D0",
"9	c #202020",
"0	c #9C4C00",
"a	c #B45400",
"b	c #CC6000",
"c	c #E46C00",
"d	c #FC8820",
"e	c #FCA85C",
"f	c #009C9C",
"g	c #BC0000",
"h	c #FC5454",
"i	c #A40000",
"............................+@@@@@@+............................",
"+######$#$#$#$#$#$$$$$$$$$$$#$#$######%#%#%%%%%%%%&&&&&&&&&&&&&*",
"+###$#$#$#$#$#$$$$$$$$$$$#$#$#$######%#%#%%%%%%%%&%&=$&=$&&&&&&*",
".$-;#$#$#$$$$$$$$$$$$$$$#$#$######%#%#%#%%%%%%%%&%&>#=>#=>&&,->*",
".#,-$#$#$$$$$$$$$$$$$#$#$#$######%#%#%%%%%%%%%%&%&%>#=>#=>&&',&*",
".$#$#......>>>>>>&&&&&&&&#######%#%#%%%%%%%%%%&%&%@)....!!>&>&>*",
".#$#%.%======~~~~~~~{{{{&####%#%#%#%%%%%%%%&%&%&%&@]+++++..>&>&*",
".$$$%+&####$$$$$$$$$$=={&###%#%#%#%%%%%%%%&%&%&%&&&@>&@>&.>&>&>*",
".$$$%+&#@#@#@#@$@$@$@$={>##%#%#%#%%%%%%%%&%&%&%&&&&>#=>#=>&>&>>*",
".$$$%@&#+#+#+#+#+$+$+$$~>#%#===~~~~{{^/%&%&%&&&&&&&>#=>#$>>&>>>*",
".$-;%@&#+#+#+#+#+#+$+$.=>%#.=+==~(~~{&^&%&%&&&&&&&&>#$>%$.&>,_>*",
".$,-%@&#.#.#.#.#.#.#.#$=.#%.====:<(~~~{%&%&&&&&&&&&>%$.%$.>>',>*",
".$$$%@&################=.%%+$==:<<<(~~~&%&&&&&&&&&&.%$.&$.>>>>>*",
".$$$&*&&&&&&&&&&&&&&&&&%.%%+$$:<<<<<(~~&&&&&&&&&&&&.%$.&#.>>>>>*",
".$$#&****@@@@@@@+++++....%%+$$[[}<[[}~~&&&&&&&&&&&&.%$.&#+>>>>>*",
".$#$&&&&&&&&&&&&&&&&&&&&%%%+#$$$[<}===~&&&&&&&&&&&&.&$.&#+>>>>>*",
".#$##########%#%#%#%%%%%%%%@##$$[<|====&&&&&&&&&&&&.&$+&#+>>>>>*",
".$-;######%#%#%#%#%%%%%%%%%@#1#$[[|$=+=&&&&&&&&&&&>+&#+&#+>>,_>*",
".#,-#####%#%#%#%#%%%%%%%%%%@####$$$$$==&&&&&&&&&&>&+&#+&#+>>',>*",
".#######%#%#%#%%%%%%%>$%%%%@@@@@@+++...&&&&&>#&&>&*@]++++++>>&>*",
".####%#%#%#%#%%%%%%%>@>%%%%&%&%&%&&&&&&&&&&.@>&>&>*2@@@@@]+>>>>*",
".###%#%#%#...>>>>>>>>>%.********************.&>&>&>@..@..+>>>&>*",
".##%#%#%#%+###$$$#$>%%%%]]]]]]]]]]]]]]]]]]]*&>&>&>>+&#+&#+>>>>>*",
".#%#%#%#%%+#$$$$#$#>%%%$..................]*>&>&>&>+&#+&#+>&>&>*",
".#_3#%#%%%+$4>>45.#>%%%$>.................]*&>&>&>>+&#+&#+>>,-&*",
".#'_%#%%%%*$>>45..#>&%&$>.................]*>&>&>>>+&#+&#+>&',>*",
".%#%#%%%%%@$>45..5#>%&%$>.................]*&>&>..>+&%+&#+>>>>&*",
".%%%%%%%%%*$45..56#>&%&$>.................]*>&++..++&&+&#+>&>&>*",
".%%%%%%%%%+#5..56+#>%&%$>.................]*&+>%++%%&>+&#+>>>>&*",
".%%%%%%%%%+$#######.&%&$>.................]*.+..]]....+&%+>&>&>@",
".%%%%%%%%%+########.%&&$>..{/..........{/.]*..+@@@@+++>&&+>>&>&@",
".%_7%%%%%%+#####@.#.&&&$>+%$8%%%%&&&&>>$/=]*.+>%@@%%%%&>>+>&,->@",
".%'_%%%%%%+####&9@%.&&&$>@*$8**********$8*]*.@++22++++++.+>>',&@",
".%%%%%%%&%+####&&%#.&&&$>+*#8........+*$8]]*..@@**@@@@@@+&>&>&>@",
".%%%%%%%%&+#####%#%.&&&$&+*#8........+*$8.]*>...**......>>&>&>&@",
".%%%&%&%&%+####%#%%.&&&$&+*%8........+*$8.]*>>>>>>>>>>>&>&>&>&>@",
".%%%%%%&%&*###%#%%%.&&&$&+*%8///888{{~=$8.]*>>>>>>>>>>>>>>&>&&&@",
".%&%&%&%&%@##%#%%%%.&&&$&+*0*00*00*ab+cde.]*>>>>>>>>>&>&>&>&>&&@",
".%_7%&%&%&*###%%%%%+&&&$&+*******@>*****..]*>>>>>>>>>>>>&>&>,f&@",
".%'_&%&%&%+##%#%%%%+&&&$&+++++++*.=++++...]*>>>>>>>>>&>&>&>&',&@",
".%%&%&%&%&+#%#%%%%%+&&&$&&&>>>.+*..&&&>>>.]*>>>>>>>>>>>>&>&>&&&@",
".%&%&%&%&%++++++++++&&&$$$$$$$#######%%%%&.+>>>>>>>>>&>&>&>&>&&@",
".&%&%&%&%&&&&&&&&&&&>>#&&&&>&>&>&>>>>>>>>>>>.&>>>>>>>>>>&>&&&&&@",
".%&%&%&%&%&&&&&&&&&&.@>&>&>&>&>&>>>>>>>>>>>.@.>>>>>&>&>&>&>&>&&@",
".&%&%&%&&&&&&&&&&&&&..>&&>&>=====~~{{^/>>>>..>>>>>>>>>&>&>&&&&&@",
".%,f&%&%&&&&&&&&&&&&>&>&>&>.=+==:((~{&^>>>>>>>>>>>>&>&>&>&>&,f&@",
".&',&&&&&&&&&&&&&&&&&&&>&>&.$==#gh(~~{{>>>>>>>>>>>>>>>&>&>&&',%@",
".%&%&%&&&&&&&&&&&&>&>&>&>&>.$$=#gh(=~~{>>>>>>>>>>&>&>&>&>&>&&&&@",
".&&&&&&&&&&&&&&&&&&&&>&>&>&+$$gggh:::~~>>>>>>>>>>>>>&>&>&&&&&&%@",
".%&&&&&&&&&&&&&&>&>&>&>&>&>+#%ihhhhhg~~>>>>>>>>>>&>&>&>&>&>&&%&@",
".&&&&&&&&&&&&&&&&&&>&>&>&>&@##&ihhhg==~>>>>>>>>>>>>>&>&>&&&&&&%@",
"+&&&&&&&&&&&&&>&>&>&>&>&>&>@###&ihi====>>>>>>>>&>&>&>&>&>&>&&%&@",
"+&,f&&&&&&&&&&&&&>&>&>&>&>>@#1##&i$$=+=>>>>>>>>>>>&>&>&>&&&&,f%@",
"+&',&&&&&&&&>&>&>&>&>&>&>&>@#####$$$$==>>>>>>>>&>&>&>&>&>&&&',&@",
"+&&&&&&&&&&&&&&>&>&>&>&>&>>@@@@@@@+++..>>>>>>>>>>>&>&>&>&&&&%&%@",
"+&&&&&&&&&>&>&>&>&>&>&>&>&>&>>>>>>>>>>>>>>>>>>>&>&>&>&>&>&&&&%&@",
"+&&&&&&&&&&&&>&>&>&>&>&>>>>>>>>>>>>>>>>>>>>>>>>>>>&>&>&&&&&&%&%@",
"+&&&&&&&>&>&>&>&>&>&>&>&>&>>>>>>>>>>>>>>>>>>>&>&>&>&>&>&>&&%&%%@",
"+&&&&&&&&&&&&>&>&>&>&>>>>>>>>>>>>>>>>>>>>>>>>>>>&>&>&>&&&&&&%&%@",
"+&,-&&>&>&>&>&>&>&>&>&>&>>>>>>>>>>>>>>>>>>>>>&>&>&>&>&>&>&&%,f%@",
"+&',&&&&&&&>&>&>&>&>>>>>>>>>>>>>>>>>>>>>>>>>>>>>&>&>&>&&&&&&',%@",
"+&&&>&>&>&>&>&>&>&>&>&>&>>>>>>>>>>>>>>>>>>>&>&>&>&>&>&>&&&&%&%%@",
"+&&&&&&&&>&>&>&>&>>>>>>>>>>>>>>>>>>>>>>>>>>>>>&>&>&>&&&&&&%&%%%@",
"@@@@@@@@@@@@@@@@@@@@@@@@@@@@@@@@@@@@@@@@@@@@@@@@@@@@@@@@@@@@@@@@"};
