/* XPM */
static char * leved_up_xpm[] = {
"64 64 44 1",
" 	c None",
".	c #383838",
"+	c #2C2C2C",
"@	c #484848",
"#	c #8C8C8C",
"$	c #989898",
"%	c #7C7C7C",
"&	c #707070",
"*	c #A8A8A8",
"=	c #545454",
"-	c #008484",
";	c #00E4E4",
">	c #646464",
",	c #005858",
"'	c #004040",
")	c #4C4C4C",
"!	c #5C5C5C",
"~	c #B4B4B4",
"{	c #C0C0C0",
"]	c #404040",
"^	c #DCDCDC",
"/	c #FCFCFC",
"(	c #FC0000",
"_	c #007070",
":	c #D40000",
"<	c #FC5454",
"[	c #BC0000",
"}	c #B00000",
"|	c #A40000",
"1	c #000000",
"2	c #303030",
"3	c #00CCCC",
"4	c #9C9C00",
"5	c #848400",
"6	c #CCC400",
"7	c #FCF400",
"8	c #D0D0D0",
"9	c #706C00",
"0	c #00B4B4",
"a	c #202020",
"b	c #009C9C",
"c	c #880000",
"d	c #A80000",
"e	c #4C0000",
"...............................................................+",
"@######$#$#$#$#$#$$$$$$$$$$$#$#$######%#%#%%%%%%%%&&&&&&&&&&&&&+",
"@###$#$#$#$#$#$$$$$$$$$$$#$#$#$######%#%#%%%%%%%%&%&*$&*$&&&&&&+",
"=$-;#$#$#$$$$$$$$$$$$$$$#$#$######%#%#%#%%%%%%%%&%&>#*>#*>&&,->+",
"=#,-$#$#$$$$$$$$$$$$$#$#$#$######%#%#%%%%%%%%%%&%&%>#*>#*>&&',&+",
"=$#$#======>>>>>>&&&&&&&&#######%#%#%%%%%%%%%%&%&%.)====!!>&>&>+",
"=#$#%=%******~~~~~~~{{{{&####%#%#%#%%%%%%%%&%&%&%&.]@@@@@==>&>&+",
"=$$$%@&####$$$$$$$$$$**{&###%#%#%#%%%%%%%%&%&%&%&&&.>&.>&=>&>&>+",
"=$$$%@&#.#.#.#.$.$.$.$*{>##%#%#%#%%%%%%%%&%&%&%&&&&>#*>#*>&>&>>+",
"=$$$%.&#@#@#@#@#@$@$@$$~>#%#***~~~~{{^/%&%&%&&&&&&&>#*>#$>>&>>>+",
"=$-;%.&#@#@#@#@#@#@$@$=*>%#=*@**~(~~{&^&%&%&&&&&&&&>#$>%$=&>,_>+",
"=$,-%.&#=#=#=#=#=#=#=#$*=#%=****:<(~~~{%&%&&&&&&&&&>%$=%$=>>',>+",
"=$$$%.&################*=%%@$**:<<<(~~~&%&&&&&&&&&&=%$=&$=>>>>>+",
"=$$$&+&&&&&&&&&&&&&&&&&%=%%@$$:<<<<<(~~&&&&&&&&&&&&=%$=&#=>>>>>+",
"=$$#&++++.......@@@@@====%%@$$[}}<[[[~~&&&&&&&&&&&&=%$=&#@>>>>>+",
"=$#$&&&&&&&&&&&&&&&&&&&&%%%@#$$$}<[***~&&&&&&&&&&&&=&$=&#@>>>>>+",
"=#$##########%#%#%#%%%%%%%%.##$$|<[****&&&&&&&&&&&&=&$@&#@>>>>>+",
"=$-;######%#%#%#%#%%%%%%%%%.#1#$||}$*@*&&&&&&&&&&&>@&#@&#@>>,_>+",
"=#,-#####%#%#%#%#%%%%%%%%%%.####$$$$$**&&&&&&&&&&>&@&#@&#@>>',>+",
"=#######%#%#%#%%%%%%%>$%%%%......@@@===&&&&&>#&&>&+.]@@@@@@>>&>+",
"=####%#%#%#%#%%%%%%%>.>%%%%&%&%&%&&&&&&&&&&=.>&>&>+2.....]@>>>>+",
"=###%#%#%#===>>>>>>>>>%=++++++++++++++++++++=&>&>&>.==.==@>>>&>+",
"=##%#%#%#%@###$$$#$>%%%%]]]]]]]]+==]]]]]]]]+&>&>&>>@&#@&#@>>>>>+",
"=#%#%#%#%%@#$$$$#$#>%%%$========+=*=======]+>&>&>&>@&#@&#@>&>&>+",
"=#_3#%#%%%@$4>>45=#>%%%$>=======+.>=======]+&>&>&>>@&#@&#@>>,-&+",
"=#'_%#%%%%+$>>45==#>&%&$>==6@66=66=67>777=]+>&>&>>>@&#@&#@>&',>+",
"=%#%#%%%%%.$>45==5#>%&%$>@+%8%%%%%%%%%%$8=]+&>&>==>@&%@&#@>>>>&+",
"=%%%%%%%%%+$45==59#>&%&$>@+%8++++++++++$8=]+>&@@==@@&&@&#@>&>&>+",
"=%%%%%%%%%@#5==59@#>%&%$>@+#8@@@@@@@@@+$8=]+&@>%@@%%&>@&#@>>>>&+",
"=%%%%%%%%%@$#######=&%&$>@+#8========@+$8=]+=@==]]====@&%@>&>&>.",
"=%%%%%%%%%@########=%&&$>@+$8========@+$8=]+==@....@@@>&&@>>&>&.",
"=%_0%%%%%%@#####.=#=&&&$>@>$8%%%%&&&&>>$/*]+=@>%..%%%%&>>@>&,->.",
"=%'_%%%%%%@####&a.%=&&&$>.+>>++++++++++>>+]+=.@@22@@@@@@=@>>',&.",
"=%%%%%%%&%@####&&%#=&&&$>@.++@@@@@@@@@.++=]+==..++......@&>&>&>.",
"=%%%%%%%%&@#####%#%=&&&$&@@@@========@@@@=]+>===++======>>&>&>&.",
"=%%%&%&%&%@####%#%%=&&&$&=================]+>>>>>>>>>>>&>&>&>&>.",
"=%%%%%%&%&+###%#%%%=&&&$&=================]+>>>>>>>>>>>>>>&>&&&.",
"=%&%&%&%&%.##%#%%%%=&&&$&=================]+>>>>>>>>>&>&>&>&>&&.",
"=%_0%&%&%&+###%%%%%@&&&$&=================]+>>>>>>>>>>>>&>&>,b&.",
"=%'_&%&%&%@##%#%%%%@&&&$&=================]+>>>>>>>>>&>&>&>&',&.",
"=%%&%&%&%&@#%#%%%%%@&&&$&&&&&&&&&&&&&&>>>=]+>>>>>>>>>>>>&>&>&&&.",
"=%&%&%&%&%@@@@@@@@@@&&&$$$$$$$#######%%%%&=@>>>>>>>>>&>&>&>&>&&.",
"=&%&%&%&%&&&&&&&&&&&>>#&&&&>&>&>&>>>>>>>>>>>=&>>>>>>>>>>&>&&&&&.",
"=%&%&%&%&%&&&&&&&&&&=.>&>&>&>&>&>>>>>>>>>>>=.=>>>>>&>&>&>&>&>&&.",
"=&%&%&%&&&&&&&&&&&&&==>&&>&>*****~~{{^/>>>>==>>>>>>>>>&>&>&&&&&.",
"=%,b&%&%&&&&&&&&&&&&>&>&>&>=*@**(((~{&^>>>>>>>>>>>>&>&>&>&>&,b&.",
"=&',&&&&&&&&&&&&&&&&&&&>&>&=$**#cd(~~{{>>>>>>>>>>>>>>>&>&>&&',%.",
"=%&%&%&&&&&&&&&&&&>&>&>&>&>=$$*#cd(*~~{>>>>>>>>>>&>&>&>&>&>&&&&.",
"=&&&&&&&&&&&&&&&&&&&&>&>&>&@$$[[cd(((~~>>>>>>>>>>>>>&>&>&&&&&&%.",
"=%&&&&&&&&&&&&&&>&>&>&>&>&>@#%eddddde~~>>>>>>>>>>&>&>&>&>&>&&%&.",
"=&&&&&&&&&&&&&&&&&&>&>&>&>&.##&eddde**~>>>>>>>>>>>>>&>&>&&&&&&%.",
"@&&&&&&&&&&&&&>&>&>&>&>&>&>.###&ede****>>>>>>>>&>&>&>&>&>&>&&%&.",
"@&,b&&&&&&&&&&&&&>&>&>&>&>>.#1##&e$$*@*>>>>>>>>>>>&>&>&>&&&&,b%.",
"@&',&&&&&&&&>&>&>&>&>&>&>&>.#####$$$$**>>>>>>>>&>&>&>&>&>&&&',&.",
"@&&&&&&&&&&&&&&>&>&>&>&>&>>.......@@@==>>>>>>>>>>>&>&>&>&&&&%&%.",
"@&&&&&&&&&>&>&>&>&>&>&>&>&>&>>>>>>>>>>>>>>>>>>>&>&>&>&>&>&&&&%&.",
"@&&&&&&&&&&&&>&>&>&>&>&>>>>>>>>>>>>>>>>>>>>>>>>>>>&>&>&&&&&&%&%.",
"@&&&&&&&>&>&>&>&>&>&>&>&>&>>>>>>>>>>>>>>>>>>>&>&>&>&>&>&>&&%&%%.",
"@&&&&&&&&&&&&>&>&>&>&>>>>>>>>>>>>>>>>>>>>>>>>>>>&>&>&>&&&&&&%&%.",
"@&,-&&>&>&>&>&>&>&>&>&>&>>>>>>>>>>>>>>>>>>>>>&>&>&>&>&>&>&&%,b%.",
"@&',&&&&&&&>&>&>&>&>>>>>>>>>>>>>>>>>>>>>>>>>>>>>&>&>&>&&&&&&',%.",
"@&&&>&>&>&>&>&>&>&>&>&>&>>>>>>>>>>>>>>>>>>>&>&>&>&>&>&>&&&&%&%%.",
"@&&&&&&&&>&>&>&>&>>>>>>>>>>>>>>>>>>>>>>>>>>>>>&>&>&>&&&&&&%&%%%.",
"................................................................"};
